<svg width="27" height="27" viewBox="0 0 27 27" fill="none" xmlns="http://www.w3.org/2000/svg">
<path d="M17.0156 23.7367L7.53752 14.2867C7.42502 14.1742 7.34552 14.0523 7.29902 13.9211C7.25177 13.7898 7.22815 13.6492 7.22815 13.4992C7.22815 13.3492 7.25177 13.2086 7.29902 13.0773C7.34552 12.9461 7.42502 12.8242 7.53752 12.7117L17.0156 3.23359C17.2781 2.97109 17.6063 2.83984 18 2.83984C18.3938 2.83984 18.7313 2.98047 19.0125 3.26172C19.2938 3.54297 19.4344 3.87109 19.4344 4.24609C19.4344 4.62109 19.2938 4.94922 19.0125 5.23047L10.7438 13.4992L19.0125 21.768C19.275 22.0305 19.4063 22.3537 19.4063 22.7377C19.4063 23.1225 19.2656 23.4555 18.9844 23.7367C18.7031 24.018 18.375 24.1586 18 24.1586C17.625 24.1586 17.2969 24.018 17.0156 23.7367Z" fill="#742BBA"/>
</svg>
