<svg width="24" height="25" viewBox="0 0 24 25" fill="none" xmlns="http://www.w3.org/2000/svg">
<path d="M7.15002 21.6C6.90002 21.35 6.77502 21.054 6.77502 20.712C6.77502 20.3707 6.90002 20.075 7.15002 19.825L14.475 12.5L7.12502 5.15C6.89169 4.91667 6.77502 4.625 6.77502 4.275C6.77502 3.925 6.90002 3.625 7.15002 3.375C7.40002 3.125 7.69602 3 8.03802 3C8.37936 3 8.67502 3.125 8.92502 3.375L17.325 11.8C17.425 11.9 17.496 12.0083 17.538 12.125C17.5794 12.2417 17.6 12.3667 17.6 12.5C17.6 12.6333 17.5794 12.7583 17.538 12.875C17.496 12.9917 17.425 13.1 17.325 13.2L8.90002 21.625C8.66669 21.8583 8.37936 21.975 8.03802 21.975C7.69602 21.975 7.40002 21.85 7.15002 21.6Z" fill="#742BBA"/>
</svg>
