<svg width="40" height="41" viewBox="0 0 40 41" fill="none" xmlns="http://www.w3.org/2000/svg">
<path d="M20.5 4.44444H35.5556H36.0556V4.94444V36.0556V36.5556H35.5556H20.5V40H35.5556C36.6441 40 37.5639 39.6186 38.342 38.842C39.1186 38.064 39.5 37.1441 39.5 36.0556V4.94444C39.5 3.85602 39.1187 2.93629 38.3423 2.1583C38.3421 2.1581 38.3419 2.1579 38.3417 2.1577M20.5 4.44444L38.3417 2.1577M20.5 4.44444V1M20.5 4.44444V1M38.3417 2.1577C37.5637 1.38131 36.644 1 35.5556 1H20.5M38.3417 2.1577L20.5 1M18.1667 22.2222H0.5V18.7778H18.1667H19.3738L18.5202 17.9242L13.1978 12.6018L15.5651 10.1055L25.9596 20.5L15.5651 30.8945L13.1978 28.3982L18.5202 23.0758L19.3738 22.2222H18.1667Z" fill="#742BBA" stroke="black"/>
</svg>
