<svg width="22" height="19" viewBox="0 0 22 19" fill="none" xmlns="http://www.w3.org/2000/svg">
<path fill-rule="evenodd" clip-rule="evenodd" d="M15.999 7.77206C15.999 8.56593 15.8179 9.35203 15.4661 10.0855C15.1144 10.8189 14.5988 11.4853 13.9488 12.0467C13.2988 12.608 12.5272 13.0533 11.6779 13.3571C10.8287 13.6609 9.91845 13.8173 8.99923 13.8173C8.08001 13.8173 7.16979 13.6609 6.32055 13.3571C5.4713 13.0533 4.69966 12.608 4.04967 12.0467C3.39968 11.4853 2.88409 10.8189 2.53232 10.0855C2.18055 9.35203 1.99949 8.56593 1.99949 7.77206C1.99949 6.16877 2.73697 4.63114 4.04967 3.49744C5.36238 2.36374 7.14278 1.72684 8.99923 1.72684C10.8557 1.72684 12.6361 2.36374 13.9488 3.49744C15.2615 4.63114 15.999 6.16877 15.999 7.77206ZM14.617 13.8449C12.8199 15.0849 10.5413 15.6835 8.24913 15.5178C5.95695 15.3521 3.82523 14.4348 2.29176 12.9541C0.758293 11.4735 -0.0605195 9.5419 0.0034887 7.55615C0.0674969 5.5704 1.00947 3.68118 2.63594 2.2765C4.26242 0.871813 6.44993 0.0582928 8.74922 0.00301297C11.0485 -0.0522668 13.2851 0.654889 14.9995 1.97925C16.7139 3.30361 17.7761 5.14464 17.968 7.12425C18.1598 9.10385 17.4667 11.0717 16.031 12.6238L21.7067 17.5239C21.7997 17.6042 21.8735 17.6995 21.9238 17.8044C21.9741 17.9093 22 18.0218 22 18.1353C22 18.2489 21.9741 18.3613 21.9238 18.4662C21.8735 18.5711 21.7997 18.6664 21.7067 18.7467C21.6138 18.827 21.5034 18.8907 21.3819 18.9342C21.2605 18.9776 21.1303 19 20.9988 19C20.8673 19 20.7371 18.9776 20.6156 18.9342C20.4941 18.8907 20.3838 18.827 20.2908 18.7467L14.619 13.8449H14.617Z" fill="#742BBA"/>
</svg>
