<svg width="27" height="27" viewBox="0 0 27 27" fill="none" xmlns="http://www.w3.org/2000/svg">
<path d="M17.0155 23.7367L7.5374 14.2867C7.4249 14.1742 7.3454 14.0523 7.2989 13.9211C7.25165 13.7898 7.22803 13.6492 7.22803 13.4992C7.22803 13.3492 7.25165 13.2086 7.2989 13.0773C7.3454 12.9461 7.4249 12.8242 7.5374 12.7117L17.0155 3.23359C17.278 2.97109 17.6062 2.83984 17.9999 2.83984C18.3937 2.83984 18.7312 2.98047 19.0124 3.26172C19.2937 3.54297 19.4343 3.87109 19.4343 4.24609C19.4343 4.62109 19.2937 4.94922 19.0124 5.23047L10.7437 13.4992L19.0124 21.768C19.2749 22.0305 19.4062 22.3537 19.4062 22.7377C19.4062 23.1225 19.2655 23.4555 18.9843 23.7367C18.703 24.018 18.3749 24.1586 17.9999 24.1586C17.6249 24.1586 17.2968 24.018 17.0155 23.7367Z" fill="#742BBA"/>
</svg>
