<svg width="60" height="61" viewBox="0 0 60 61" fill="none" xmlns="http://www.w3.org/2000/svg">
<path d="M29.8925 34.1421L54.2675 9.76705C54.7229 9.29555 54.9749 8.66404 54.9692 8.00855C54.9635 7.35306 54.7006 6.72603 54.237 6.26251C53.7735 5.79899 53.1465 5.53606 52.491 5.53037C51.8355 5.52467 51.204 5.77666 50.7325 6.23205L26.3575 30.6071L25.625 34.8746L29.8925 34.1421ZM16.25 7.99955C13.9294 7.99955 11.7038 8.92143 10.0628 10.5624C8.42187 12.2033 7.5 14.4289 7.5 16.7496V44.2496C7.5 46.5702 8.42187 48.7958 10.0628 50.4367C11.7038 52.0777 13.9294 52.9996 16.25 52.9996H43.75C46.0706 52.9996 48.2962 52.0777 49.9372 50.4367C51.5781 48.7958 52.5 46.5702 52.5 44.2496V25.4996C52.5 24.8365 52.2366 24.2006 51.7678 23.7318C51.2989 23.2629 50.663 22.9996 50 22.9996C49.337 22.9996 48.7011 23.2629 48.2322 23.7318C47.7634 24.2006 47.5 24.8365 47.5 25.4996V44.2496C47.5 45.2441 47.1049 46.1979 46.4016 46.9012C45.6984 47.6045 44.7446 47.9996 43.75 47.9996H16.25C15.2554 47.9996 14.3016 47.6045 13.5983 46.9012C12.8951 46.1979 12.5 45.2441 12.5 44.2496V16.7496C12.5 15.755 12.8951 14.8012 13.5983 14.0979C14.3016 13.3946 15.2554 12.9996 16.25 12.9996H35C35.663 12.9996 36.2989 12.7362 36.7678 12.2673C37.2366 11.7985 37.5 11.1626 37.5 10.4996C37.5 9.83651 37.2366 9.20063 36.7678 8.73179C36.2989 8.26295 35.663 7.99955 35 7.99955H16.25Z" fill="#742BBA"/>
</svg>
