<svg width="60" height="61" viewBox="0 0 60 61" fill="none" xmlns="http://www.w3.org/2000/svg">
<path d="M29.8925 34.143L54.2675 9.76803C54.7229 9.29652 54.9749 8.66502 54.9692 8.00953C54.9635 7.35403 54.7006 6.727 54.237 6.26348C53.7735 5.79996 53.1465 5.53704 52.491 5.53134C51.8355 5.52565 51.204 5.77763 50.7325 6.23303L26.3575 30.608L25.625 34.8755L29.8925 34.143ZM16.25 8.00053C13.9294 8.00053 11.7038 8.9224 10.0628 10.5633C8.42187 12.2043 7.5 14.4299 7.5 16.7505V44.2505C7.5 46.5712 8.42187 48.7968 10.0628 50.4377C11.7038 52.0787 13.9294 53.0005 16.25 53.0005H43.75C46.0706 53.0005 48.2962 52.0787 49.9372 50.4377C51.5781 48.7968 52.5 46.5712 52.5 44.2505V25.5005C52.5 24.8375 52.2366 24.2016 51.7678 23.7328C51.2989 23.2639 50.663 23.0005 50 23.0005C49.337 23.0005 48.7011 23.2639 48.2322 23.7328C47.7634 24.2016 47.5 24.8375 47.5 25.5005V44.2505C47.5 45.2451 47.1049 46.1989 46.4016 46.9022C45.6984 47.6054 44.7446 48.0005 43.75 48.0005H16.25C15.2554 48.0005 14.3016 47.6054 13.5983 46.9022C12.8951 46.1989 12.5 45.2451 12.5 44.2505V16.7505C12.5 15.756 12.8951 14.8021 13.5983 14.0989C14.3016 13.3956 15.2554 13.0005 16.25 13.0005H35C35.663 13.0005 36.2989 12.7371 36.7678 12.2683C37.2366 11.7995 37.5 11.1636 37.5 10.5005C37.5 9.83749 37.2366 9.2016 36.7678 8.73276C36.2989 8.26392 35.663 8.00053 35 8.00053H16.25Z" fill="#742BBA"/>
</svg>
