<svg width="35" height="35" viewBox="0 0 35 35" fill="none" xmlns="http://www.w3.org/2000/svg">
<path d="M7.29167 30.625C6.48958 30.625 5.80271 30.3397 5.23104 29.769C4.66035 29.1973 4.375 28.5104 4.375 27.7083V7.29167C4.375 6.48958 4.66035 5.80271 5.23104 5.23104C5.80271 4.66035 6.48958 4.375 7.29167 4.375H27.7083C28.5104 4.375 29.1973 4.66035 29.769 5.23104C30.3397 5.80271 30.625 6.48958 30.625 7.29167V27.7083C30.625 28.5104 30.3397 29.1973 29.769 29.769C29.1973 30.3397 28.5104 30.625 27.7083 30.625H7.29167ZM7.29167 27.7083H27.7083V7.29167H7.29167V27.7083ZM8.75 24.7917H26.25L20.7812 17.5L16.4062 23.3333L13.125 18.9583L8.75 24.7917Z" fill="#742BBA"/>
</svg>
