<svg width="25" height="25" viewBox="0 0 25 25" fill="none" xmlns="http://www.w3.org/2000/svg">
<path d="M22.5 7.89474H15.485L16.8887 3.46447C17.1412 2.66447 17.0137 1.77763 16.545 1.09342C16.0762 0.409211 15.3162 0 14.515 0H12.5C12.1287 0 11.7775 0.173684 11.5387 0.473684L5.66375 7.89474H2.5C1.12125 7.89474 0 9.075 0 10.5263V22.3684C0 23.8197 1.12125 25 2.5 25H19.1337C19.6424 24.9982 20.1385 24.834 20.5565 24.529C20.9746 24.2241 21.2948 23.7928 21.475 23.2921L24.9212 13.6197C24.9736 13.472 25.0002 13.3156 25 13.1579V10.5263C25 9.075 23.8787 7.89474 22.5 7.89474ZM2.5 10.5263H5V22.3684H2.5V10.5263ZM22.5 12.9197L19.1337 22.3684H7.5V9.68684L13.085 2.63158H14.5175L12.565 8.79342C12.5016 8.9912 12.4839 9.20204 12.5134 9.40846C12.5429 9.61487 12.6187 9.81091 12.7346 9.98032C12.8504 10.1497 13.003 10.2876 13.1796 10.3826C13.3562 10.4775 13.5517 10.5268 13.75 10.5263H22.5V12.9197Z" fill="black" fill-opacity="0.3"/>
</svg>
