<svg width="24" height="25" viewBox="0 0 24 25" fill="none" xmlns="http://www.w3.org/2000/svg">
<path d="M7.1499 21.6C6.8999 21.35 6.7749 21.054 6.7749 20.712C6.7749 20.3707 6.8999 20.075 7.1499 19.825L14.4749 12.5L7.1249 5.15C6.89157 4.91667 6.7749 4.625 6.7749 4.275C6.7749 3.925 6.8999 3.625 7.1499 3.375C7.3999 3.125 7.6959 3 8.0379 3C8.37924 3 8.6749 3.125 8.9249 3.375L17.3249 11.8C17.4249 11.9 17.4959 12.0083 17.5379 12.125C17.5792 12.2417 17.5999 12.3667 17.5999 12.5C17.5999 12.6333 17.5792 12.7583 17.5379 12.875C17.4959 12.9917 17.4249 13.1 17.3249 13.2L8.8999 21.625C8.66657 21.8583 8.37924 21.975 8.0379 21.975C7.6959 21.975 7.3999 21.85 7.1499 21.6Z" fill="#742BBA"/>
</svg>
