<svg width="40" height="31" viewBox="0 0 40 31" fill="none" xmlns="http://www.w3.org/2000/svg">
<path d="M36.3636 0.5H3.63636C2.67194 0.5 1.74702 0.871848 1.06507 1.53374C0.383116 2.19563 0 3.09335 0 4.02941V26.9706C0 27.9066 0.383116 28.8044 1.06507 29.4663C1.74702 30.1282 2.67194 30.5 3.63636 30.5H36.3636C37.3281 30.5 38.253 30.1282 38.9349 29.4663C39.6169 28.8044 40 27.9066 40 26.9706V4.02941C40 3.09335 39.6169 2.19563 38.9349 1.53374C38.253 0.871848 37.3281 0.5 36.3636 0.5ZM3.63636 26.9706V4.02941H18.1818V26.9706H3.63636ZM36.3636 26.9706H21.8182V4.02941H36.3636V26.9706ZM23.6364 10.2059H34.5455V12.8529H23.6364V10.2059ZM23.6364 14.6176H34.5455V17.2647H23.6364V14.6176ZM23.6364 19.0294H34.5455V21.6765H23.6364V19.0294Z" fill="#742BBA"/>
</svg>
