<svg width="82" height="76" viewBox="0 0 82 76" fill="none" xmlns="http://www.w3.org/2000/svg">
<g filter="url(#filter0_d_213_1084)">
<path d="M0 19.4866H9.30726V68H0V19.4866Z" fill="#FFC055"/>
<path d="M8.54749 19.4866H45.3967V29.4328H8.54749V19.4866Z" fill="#FFC055"/>
<path d="M9.30726 43.8448H30.2011V53.5881H9.30726V43.8448Z" fill="#FFC055"/>
<path d="M0 18.4716L22.6034 0.202985H29.6313L8.73743 18.4716H0Z" fill="#FFC055"/>
<path d="M29.4413 0L34.5698 5.88657L27.352 11.9761L22.6034 5.88657L29.4413 0Z" fill="#FFC055"/>
<path d="M34.1899 5.27761L57.1732 0.40597L50.7151 6.29254L26.9721 11.9761L34.1899 5.27761Z" fill="#FFC055"/>
<path d="M56.2235 0.608955H66.2905L45.0168 19.0806H35.7095L56.2235 0.608955Z" fill="#FFC055"/>
<path fill-rule="evenodd" clip-rule="evenodd" d="M68 10.564C68 6.65161 63.7671 4.47448 60.9058 6.91525L47.9896 17.9334C46.9511 18.8193 46.3464 20.1621 46.3464 21.5822V57.4727C46.3464 61.3966 50.6013 63.5701 53.4587 61.1058L66.3749 49.9666C67.4026 49.0802 68 47.7447 68 46.3334V10.564ZM62.6816 23.1555C62.6816 18.899 57.7875 16.8627 55.0942 19.9986L52.625 22.8738C51.8853 23.7351 51.4749 24.8616 51.4749 26.0306V45.9652C51.4749 50.2341 56.3932 52.264 59.0782 49.1033L61.5475 46.1966C62.2773 45.3375 62.6816 44.2188 62.6816 43.0585V23.1555Z" fill="#FFC055"/>
<path d="M46.3464 19.0806L52.4246 14.006V62.1134L46.3464 67.391V19.0806Z" fill="#FFC055"/>
</g>
<defs>
<filter id="filter0_d_213_1084" x="0" y="0" width="82" height="76" filterUnits="userSpaceOnUse" color-interpolation-filters="sRGB">
<feFlood flood-opacity="0" result="BackgroundImageFix"/>
<feColorMatrix in="SourceAlpha" type="matrix" values="0 0 0 0 0 0 0 0 0 0 0 0 0 0 0 0 0 0 127 0" result="hardAlpha"/>
<feOffset dx="10" dy="4"/>
<feGaussianBlur stdDeviation="2"/>
<feComposite in2="hardAlpha" operator="out"/>
<feColorMatrix type="matrix" values="0 0 0 0 0 0 0 0 0 0 0 0 0 0 0 0 0 0 0.25 0"/>
<feBlend mode="normal" in2="BackgroundImageFix" result="effect1_dropShadow_213_1084"/>
<feBlend mode="normal" in="SourceGraphic" in2="effect1_dropShadow_213_1084" result="shape"/>
</filter>
</defs>
</svg>
