<svg width="40" height="41" viewBox="0 0 40 41" fill="none" xmlns="http://www.w3.org/2000/svg">
<path d="M35.5556 40H20.5V36.5556H35.5556H36.0556V36.0556V4.94444V4.44444H35.5556H20.5V1H35.5556C36.644 1 37.5637 1.38131 38.3417 2.1577C39.1185 2.93581 39.5 3.85574 39.5 4.94444V36.0556C39.5 37.1441 39.1186 38.064 38.342 38.842C37.5639 39.6186 36.6441 40 35.5556 40ZM18.1667 22.2222H0.5V18.7778H18.1667H19.3738L18.5202 17.9242L13.1978 12.6018L15.5651 10.1055L25.9596 20.5L15.5651 30.8945L13.1978 28.3982L18.5202 23.0758L19.3738 22.2222H18.1667Z" fill="#742BBA" stroke="black"/>
</svg>
