<svg width="61" height="55" viewBox="0 0 61 55" fill="none" xmlns="http://www.w3.org/2000/svg">
<g filter="url(#filter0_d_684_6735)">
<path d="M0.75 13.7888H6.97765V46.25H0.75V13.7888Z" fill="#FFC055"/>
<path d="M6.46927 13.7888H31.1257V20.444H6.46927V13.7888Z" fill="#FFC055"/>
<path d="M6.97765 30.0873H20.9581V36.6067H6.97765V30.0873Z" fill="#FFC055"/>
<path d="M0.75 13.1097L15.8743 0.885821H20.5768L6.59637 13.1097H0.75Z" fill="#FFC055"/>
<path d="M20.4497 0.75L23.8813 4.68881L19.0517 8.76343L15.8743 4.68881L20.4497 0.75Z" fill="#FFC055"/>
<path d="M23.6271 4.28134L39.0056 1.02164L34.6844 4.96045L18.7975 8.76343L23.6271 4.28134Z" fill="#FFC055"/>
<path d="M38.3701 1.15746H45.1061L30.8715 13.5172H24.6439L38.3701 1.15746Z" fill="#FFC055"/>
<path fill-rule="evenodd" clip-rule="evenodd" d="M46.25 7.81854C46.25 5.20071 43.4177 3.74396 41.5032 5.37712L32.8607 12.7496C32.1658 13.3423 31.7612 14.2408 31.7612 15.191V39.206C31.7612 41.8316 34.6082 43.2859 36.5202 41.637L45.1626 34.1835C45.8503 33.5905 46.25 32.6968 46.25 31.7525V7.81854ZM42.6913 16.2437C42.6913 13.3957 39.4166 12.0332 37.6145 14.1314L35.9623 16.0553C35.4674 16.6316 35.1927 17.3853 35.1927 18.1676V31.5062C35.1927 34.3625 38.4837 35.7208 40.2803 33.6059L41.9325 31.6609C42.4208 31.0861 42.6913 30.3376 42.6913 29.5612V16.2437Z" fill="#FFC055"/>
<path d="M31.7612 13.5172L35.8282 10.1216V42.3112L31.7612 45.8425V13.5172Z" fill="#FFC055"/>
</g>
<defs>
<filter id="filter0_d_684_6735" x="0.75" y="0.75" width="59.5" height="53.5" filterUnits="userSpaceOnUse" color-interpolation-filters="sRGB">
<feFlood flood-opacity="0" result="BackgroundImageFix"/>
<feColorMatrix in="SourceAlpha" type="matrix" values="0 0 0 0 0 0 0 0 0 0 0 0 0 0 0 0 0 0 127 0" result="hardAlpha"/>
<feOffset dx="10" dy="4"/>
<feGaussianBlur stdDeviation="2"/>
<feComposite in2="hardAlpha" operator="out"/>
<feColorMatrix type="matrix" values="0 0 0 0 0 0 0 0 0 0 0 0 0 0 0 0 0 0 0.25 0"/>
<feBlend mode="normal" in2="BackgroundImageFix" result="effect1_dropShadow_684_6735"/>
<feBlend mode="normal" in="SourceGraphic" in2="effect1_dropShadow_684_6735" result="shape"/>
</filter>
</defs>
</svg>
