<svg width="21" height="20" viewBox="0 0 21 20" fill="none" xmlns="http://www.w3.org/2000/svg">
<path d="M20.5 3.57143H6.75M4.25 3.57143H0.5M20.5 16.4286H6.75M4.25 16.4286H0.5M14.25 10H0.5M20.5 10H16.75M5.5 1C5.83152 1 6.14946 1.13546 6.38388 1.37658C6.6183 1.6177 6.75 1.94472 6.75 2.28571V4.85714C6.75 5.19814 6.6183 5.52516 6.38388 5.76628C6.14946 6.0074 5.83152 6.14286 5.5 6.14286C5.16848 6.14286 4.85054 6.0074 4.61612 5.76628C4.3817 5.52516 4.25 5.19814 4.25 4.85714V2.28571C4.25 1.94472 4.3817 1.6177 4.61612 1.37658C4.85054 1.13546 5.16848 1 5.5 1ZM5.5 13.8571C5.83152 13.8571 6.14946 13.9926 6.38388 14.2337C6.6183 14.4748 6.75 14.8019 6.75 15.1429V17.7143C6.75 18.0553 6.6183 18.3823 6.38388 18.6234C6.14946 18.8645 5.83152 19 5.5 19C5.16848 19 4.85054 18.8645 4.61612 18.6234C4.3817 18.3823 4.25 18.0553 4.25 17.7143V15.1429C4.25 14.8019 4.3817 14.4748 4.61612 14.2337C4.85054 13.9926 5.16848 13.8571 5.5 13.8571ZM15.5 7.42857C15.8315 7.42857 16.1495 7.56403 16.3839 7.80515C16.6183 8.04627 16.75 8.37329 16.75 8.71429V11.2857C16.75 11.6267 16.6183 11.9537 16.3839 12.1949C16.1495 12.436 15.8315 12.5714 15.5 12.5714C15.1685 12.5714 14.8505 12.436 14.6161 12.1949C14.3817 11.9537 14.25 11.6267 14.25 11.2857V8.71429C14.25 8.37329 14.3817 8.04627 14.6161 7.80515C14.8505 7.56403 15.1685 7.42857 15.5 7.42857Z" stroke="#742BBA" stroke-linecap="round" stroke-linejoin="round"/>
</svg>
