<svg width="25" height="26" viewBox="0 0 25 26" fill="none" xmlns="http://www.w3.org/2000/svg">
<path d="M22.5 8.64474H15.485L16.8887 4.21447C17.1412 3.41447 17.0137 2.52763 16.545 1.84342C16.0762 1.15921 15.3162 0.75 14.515 0.75H12.5C12.1287 0.75 11.7775 0.923684 11.5387 1.22368L5.66375 8.64474H2.5C1.12125 8.64474 0 9.825 0 11.2763V23.1184C0 24.5697 1.12125 25.75 2.5 25.75H19.1337C19.6424 25.7482 20.1385 25.584 20.5565 25.279C20.9746 24.9741 21.2948 24.5428 21.475 24.0421L24.9212 14.3697C24.9736 14.222 25.0002 14.0656 25 13.9079V11.2763C25 9.825 23.8787 8.64474 22.5 8.64474ZM2.5 11.2763H5V23.1184H2.5V11.2763ZM22.5 13.6697L19.1337 23.1184H7.5V10.4368L13.085 3.38158H14.5175L12.565 9.54342C12.5016 9.7412 12.4839 9.95204 12.5134 10.1585C12.5429 10.3649 12.6187 10.5609 12.7346 10.7303C12.8504 10.8997 13.003 11.0376 13.1796 11.1326C13.3562 11.2275 13.5517 11.2768 13.75 11.2763H22.5V13.6697Z" fill="black" fill-opacity="0.3"/>
</svg>
